<?xml version="1.0" encoding="UTF-8"?>
<svg width="86px" height="102px" viewBox="0 0 86 102" version="1.1" xmlns="http://www.w3.org/2000/svg" xmlns:xlink="http://www.w3.org/1999/xlink">
    <!-- Generator: Sketch 51.2 (57519) - http://www.bohemiancoding.com/sketch -->
    <title>Artboard</title>
    <desc>Created with Sketch.</desc>
    <defs></defs>
    <g id="Artboard" stroke="none" stroke-width="1" fill="none" fill-rule="evenodd">
        <path d="M43,0 C41.3432,0 40,1.34319934 40,2.99999853 L40,10.9999946 C40,12.6568938 41.3432,13.9999931 43,13.9999931 C44.6569,13.9999931 46,12.6568938 46,10.9999946 L46,2.99999853 C46,1.34319934 44.6569,0 43,0 Z M14.7188,11.7187443 C13.9509,11.7187443 13.1796,12.0079441 12.5938,12.5937438 C11.4223,13.7652433 11.4223,15.6723423 12.5938,16.8437417 L18.25,22.499989 C19.4216,23.6715884 21.3285,23.6714884 22.5,22.499989 C23.6716,21.3283895 23.6716,19.4215905 22.5,18.2499911 L16.8438,12.5937438 C16.2579,12.0079441 15.4865,11.7187443 14.7188,11.7187443 Z M71.2812,11.7187443 C70.5135,11.7187443 69.7421,12.0079441 69.1562,12.5937438 L63.5,18.2499911 C62.3284,19.4215905 62.3284,21.3283895 63.5,22.499989 C64.6715,23.6714884 66.5784,23.6715884 67.75,22.499989 L73.4062,16.8437417 C74.5777,15.6723423 74.5777,13.7652433 73.4062,12.5937438 C72.8204,12.0079441 72.0491,11.7187443 71.2812,11.7187443 Z M43,17.9999912 C29.2531,17.9999912 16,28.6971959 16,43.8437285 C16,53.2743239 19.7355,59.3857209 23.0625,64.0937186 C26.3895,68.8018163 29,71.9912147 29,77.0000123 L29,89.0000064 C29,92.9425044 32.2767,96.0000029 36,96.0000029 L36.094,96.0000029 C36.5868,99.3656013 39.5118,102 43.0002,102 C46.4886,102 49.4136,99.3656013 49.9064,96.0000029 L50.0004,96.0000029 C53.7237,96.0000029 57.0004,92.9425044 57.0004,89.0000064 L57.0004,77.0000123 C57.0004,71.9912147 59.6109,68.8018163 62.9379,64.0937186 C66.2649,59.3857209 70.0004,53.2743239 70.0004,43.8437285 C70,28.6971959 56.7469,17.9999912 43,17.9999912 Z M43,23.9999882 C53.6435,23.9999882 64,32.2256742 64,43.8437285 C64,51.7770246 61.2355,56.1349225 58.0625,60.6250203 C55.3572,64.4533184 52.1423,68.4717164 51.25,74.0000137 L34.75,74.0000137 C33.8577,68.4717164 30.6428,64.4533184 27.9375,60.6250203 C24.7645,56.1349225 22,51.7770246 22,43.8437285 C22,32.2256742 32.3565,23.9999882 43,23.9999882 Z M38.2812,26.9999868 C37.8543,26.9845868 37.3979,27.0423867 36.9375,27.1562367 C30.4289,29.6105055 25.5565,35.3430327 24.3125,42.3437292 C24.0423,43.8982685 25.1955,45.5737177 26.75,45.8437275 C28.3046,46.1137374 29.9802,44.929608 30.25,43.3749787 C31.1214,38.4706811 34.5167,34.4641131 39.0625,32.7499839 C40.3659,32.2653942 41.2117,30.7754349 40.9688,29.4062356 C40.6082,27.7270464 39.562,27.0460867 38.2812,26.9999868 Z M3,39.9999804 C1.3432,39.9999804 0,41.3430797 0,42.9999789 C0,44.6567781 1.3432,45.9999775 3,45.9999775 L11,45.9999775 C12.6569,45.9999775 14,44.6567781 14,42.9999789 C14,41.3430797 12.6569,39.9999804 11,39.9999804 L3,39.9999804 Z M75,39.9999804 C73.3431,39.9999804 72,41.3431797 72,42.9999789 C72,44.6568781 73.3431,45.9999775 75,45.9999775 L83,45.9999775 C84.6568,45.9999775 86,44.6568781 86,42.9999789 C86,41.3431797 84.6568,39.9999804 83,39.9999804 L75,39.9999804 Z M35,80.0000108 L51,80.0000108 L51,82.0000098 L35,82.0000098 L35,80.0000108 Z M35,88.0000069 L51,88.0000069 L51,89.0000064 C51,89.6537061 50.4977,90.0000059 50,90.0000059 L36,90.0000059 C35.5023,90.0000059 35,89.6537061 35,89.0000064 L35,88.0000069 Z" id="Shape" fill="#000000" fill-rule="nonzero"></path>
    </g>
</svg>