<?xml version="1.0" encoding="UTF-8"?>
<svg width="169px" height="229px" viewBox="0 0 169 229" version="1.1" xmlns="http://www.w3.org/2000/svg" xmlns:xlink="http://www.w3.org/1999/xlink">
    <!-- Generator: Sketch 51.2 (57519) - http://www.bohemiancoding.com/sketch -->
    <title>Simon 100 iO</title>
    <desc>Created with Sketch.</desc>
    <defs></defs>
    <g id="Simon-100-iO" stroke="none" stroke-width="1" fill="none" fill-rule="evenodd">
        <rect id="Rectangle" stroke="#000000" stroke-width="4" x="2" y="62" width="165" height="165"></rect>
        <rect id="Rectangle-2" stroke="#000000" stroke-width="4" x="15" y="146" width="140" height="68"></rect>
        <path d="M79.1774194,198 L89.8225806,198" id="Line" stroke="#000000" stroke-width="4" stroke-linecap="square"></path>
        <g id="simon" transform="translate(26.000000, 1.000000)" fill="#000000" stroke="#000000">
            <path d="M16.074575,11.383165 L16.074575,17.4561132 L6.75303969,17.4561132 L6.75303969,20.6429947 C9.02095124,20.6429947 11.0044849,20.6429947 12.7036406,20.6429947 C16.074575,20.6429947 19.6755756,24.458502 19.6755756,27.7229145 C19.6755756,29.01953 19.6755756,29.6528738 19.6755756,30.6611118 C19.6755756,33.8205849 16.074575,37.533839 12.7036406,37.533839 C9.22124752,37.533839 4.98670066,37.533839 0,37.533839 L1.88468207e-14,31.8149001 C4.3538361,31.8149001 8.34537283,31.8149001 11.9746102,31.8149001 C13.4920642,31.8149001 14.0409499,30.3618896 14.0409499,29.01953 C14.0409499,27.6771704 13.7040907,26.6412046 11.9746102,26.6412046 C9.34801803,26.6412046 8.27665457,26.6412046 6.01177456,26.6412046 C3.40310796,26.6412046 -2.6790268e-19,22.9008033 1.88468207e-14,20.6429947 C-1.33451777e-18,19.573893 -1.18716938e-14,18.8442223 1.88468207e-14,17.4561132 C-1.18716938e-14,14.2711884 3.47066375,11.383165 6.01177456,11.383165 C7.15901467,11.383165 10.5132815,11.383165 16.074575,11.383165 Z M22.3960101,11.4563074 L28.3960101,11.4563074 L28.3960101,37.8591233 L22.3960101,37.8591233 L22.3960101,11.4563074 Z M33.8307115,11.5823871 C36.0391115,11.5823871 37.7793946,11.5823871 39.0515608,11.5823871 C39.7832989,11.5823871 39.7832989,12.0774686 39.7832989,13.462525 C42.6272586,12.9635198 46.0056481,12.3368072 49.9184674,11.5823871 C51.9722143,11.8306621 52.9990877,12.4573747 52.9990877,13.462525 C56.0485418,12.9635198 59.4439697,12.3368072 63.1853714,11.5823871 C64.9787262,11.5297147 65.9190101,11.9069247 66.0062232,12.7140173 C66.0062232,20.6596143 66.0062232,28.9840348 66.0062232,37.6872788 L60.7182952,37.6872788 C60.7182952,31.3451129 60.7182952,25.3157721 60.7182952,19.5992562 C60.7182952,18.5537319 59.9659176,18.0309697 58.4611623,18.0309697 L52.9990877,19.5992562 L52.9990877,37.6872788 L46.9226628,37.6872788 C46.9226628,31.5204501 46.9226628,25.4911093 46.9226628,19.5992562 C46.9226628,18.2097387 46.2355364,17.5149799 44.8612835,17.5149799 L39.0515608,19.5992562 L39.0515608,37.6872788 L33.8307115,37.6872788 L33.8307115,11.5823871 Z M100.152493,11.5101485 C101.934493,11.5101485 103.579425,11.5101485 105.087291,11.5101485 C105.874063,11.5101485 106.449177,12.1306263 106.812632,13.3715818 L116.477766,11.5101485 C118.113884,11.1475441 118.931942,11.5004596 118.931942,12.5688951 C118.733923,20.0794681 118.733923,28.3392824 118.931942,37.348338 L114.044551,37.348338 C114.044551,31.035659 114.044551,25.1188685 114.044551,19.5979662 C114.044551,18.2484379 113.353985,17.5736737 111.972852,17.5736737 L105.721636,19.5979662 L105.721636,37.348338 L100.152493,37.348338 L100.152493,11.5101485 Z M25.3960101,7 C23.4630134,7 21.8960101,5.43299662 21.8960101,3.5 C21.8960101,1.56700338 23.4630134,0 25.3960101,0 C27.3290067,0 28.8960101,1.56700338 28.8960101,3.5 C28.8960101,5.43299662 27.3290067,7 25.3960101,7 Z M83.3960101,39 C75.6640236,39 69.3960101,32.7319865 69.3960101,25 C69.3960101,17.2680135 75.6640236,11 83.3960101,11 C91.1279966,11 97.3960101,17.2680135 97.3960101,25 C97.3960101,32.7319865 91.1279966,39 83.3960101,39 Z M83.3960101,33 C87.8142881,33 91.3960101,29.418278 91.3960101,25 C91.3960101,20.581722 87.8142881,17 83.3960101,17 C78.9777321,17 75.3960101,20.581722 75.3960101,25 C75.3960101,29.418278 78.9777321,33 83.3960101,33 Z" id="Combined-Shape"></path>
        </g>
    </g>
</svg>