<?xml version="1.0" encoding="UTF-8"?>
<svg width="600px" height="600px" viewBox="0 0 600 600" version="1.1" xmlns="http://www.w3.org/2000/svg" xmlns:xlink="http://www.w3.org/1999/xlink">
    <!-- Generator: Sketch 51.2 (57519) - http://www.bohemiancoding.com/sketch -->
    <title>Generic Blind</title>
    <desc>Created with Sketch.</desc>
    <defs></defs>
    <g id="Generic-Blind" stroke="none" stroke-width="1" fill="none" fill-rule="evenodd">
        <g id="Group" transform="translate(58.000000, 102.000000)" fill="#000000" fill-rule="nonzero">
            <path d="M471.505167,274.156919 L446.456387,274.156919 L446.456387,358.332457 L66.5651095,358.332457 L66.5651095,274.156919 L41.5270773,274.156919 C36.9966928,274.156919 32.7833816,272.955566 29,271 L29,383.436969 C29,390.37034 34.5998346,396 41.5270773,396 L471.499793,396 C478.394791,396 484,390.37034 484,383.436969 L484,271 C480.243489,272.955566 476.035552,274.156919 471.505167,274.156919 Z" id="Shape"></path>
            <circle id="Oval" cx="8" cy="49" r="8"></circle>
            <circle id="Oval" cx="8" cy="73" r="8"></circle>
            <circle id="Oval" cx="8" cy="96" r="8"></circle>
            <circle id="Oval" cx="8" cy="119" r="8"></circle>
            <circle id="Oval" cx="8" cy="143" r="8"></circle>
            <circle id="Oval" cx="8" cy="166" r="8"></circle>
            <circle id="Oval" cx="8" cy="189" r="8"></circle>
            <path d="M0,213.010638 C0,208.574468 3.56914894,205 8,205 C12.4202128,205 16,208.574468 16,213.010638 C16,217.414894 12.4202128,221 8,221 C3.57446809,221 0,217.414894 0,213.010638 Z" id="Shape"></path>
            <circle id="Oval" cx="8" cy="236" r="8"></circle>
            <circle id="Oval" cx="8" cy="260" r="8"></circle>
            <path d="M0,283.010638 C0,278.574468 3.56914894,275 8,275 C12.4202128,275 16,278.574468 16,283.010638 C16,287.414894 12.4202128,291 8,291 C3.57446809,291 0,287.420213 0,283.010638 Z" id="Shape"></path>
            <circle id="Oval" cx="8" cy="306" r="8"></circle>
            <circle id="Oval" cx="8" cy="330" r="8"></circle>
            <path d="M100.994612,224.125194 L41.5585154,224.125194 C37.0167614,224.125194 32.7928764,222.910435 29,221 L29,246.552739 C29,253.418533 34.6138881,259 41.5585154,259 L101,259 L101,224.125194 L100.994612,224.125194 Z" id="Shape"></path>
            <rect id="Rectangle-path" x="111" y="1" width="14" height="258"></rect>
            <path d="M100.994612,123.13369 L41.5585154,123.13369 C37.0167614,123.13369 32.7928764,121.935829 29,120 L29,145.540107 C29,152.417112 34.6138881,158 41.5585154,158 L101,158 L101,123.13369 L100.994612,123.13369 Z" id="Shape"></path>
            <path d="M100.994612,73.1381542 L41.5585154,73.1381542 C37.0167614,73.1381542 32.7928764,71.9406303 29,70 L29,95.5436128 C29,102.418683 34.6138881,108 41.5585154,108 L101,108 L101,73.1381542 L100.994612,73.1381542 Z" id="Shape"></path>
            <path d="M41.4090277,1 C34.8136164,1 29.5740186,6.05670971 29.0230506,12.4149354 L9.95523585,12.4149354 C4.46716226,12.4149354 0,16.8155531 0,22.2456485 C0,27.675744 4.46716226,32.0710275 9.94983421,32.0710275 L28.8123864,32.0710275 L28.8123864,45.571589 C28.8123864,52.4312184 34.4409028,58 41.4036261,58 L101,58 L101,1 L41.4090277,1 Z" id="Shape"></path>
            <path d="M100.994612,173.131927 L41.5585154,173.131927 C37.0167614,173.131927 32.7928764,171.93474 29,170 L29,195.531083 C29,202.414909 34.6138881,208 41.5585154,208 L101,208 L101,173.131927 L100.994612,173.131927 Z" id="Shape"></path>
            <rect id="Rectangle-path" x="387" y="1" width="14" height="258"></rect>
            <g transform="translate(135.000000, 220.000000)">
                <rect id="Rectangle-path" x="0.410769231" y="3.35325" width="241.300769" height="35.03425"></rect>
                <path d="M336.475385,3.35325 L277.045385,3.35325 L277.045385,38.3875 L336.475385,38.3875 C343.383846,38.3875 349,32.781375 349,25.88525 L349,0.219625 C345.230769,2.154625 341.014615,3.35325 336.475385,3.35325 Z" id="Shape"></path>
            </g>
            <g transform="translate(135.000000, 170.000000)">
                <rect id="Rectangle-path" x="0.410769231" y="3.644" width="241.300769" height="35.061125"></rect>
                <path d="M336.475385,3.644 L277.045385,3.644 L277.045385,38.705125 L336.475385,38.705125 C343.383846,38.705125 349,33.08825 349,26.16525 L349,0.49425 C345.230769,2.44 341.014615,3.644 336.475385,3.644 Z" id="Shape"></path>
            </g>
            <g transform="translate(135.000000, 120.000000)">
                <rect id="Rectangle-path" x="0.410769231" y="3.256" width="241.300769" height="34.7733333"></rect>
                <path d="M336.475385,3.256 L277.045385,3.256 L277.045385,38.0293333 L336.475385,38.0293333 C343.383846,38.0293333 349,32.4613333 349,25.6026667 L349,0.136 C345.230769,2.06133333 341.014615,3.256 336.475385,3.256 Z" id="Shape"></path>
            </g>
            <g transform="translate(135.000000, 70.000000)">
                <rect id="Rectangle-path" x="0.410769231" y="3.616625" width="241.300769" height="35.050375"></rect>
                <path d="M336.475385,3.616625 L277.045385,3.616625 L277.045385,38.667 L336.475385,38.667 C343.383846,38.667 349,33.0555 349,26.14325 L349,0.466875 C345.230769,2.412625 341.014615,3.616625 336.475385,3.616625 Z" id="Shape"></path>
            </g>
            <g transform="translate(135.000000, 0.000000)">
                <rect id="Rectangle-path" x="0.410769231" y="0.989333333" width="241.300769" height="56.9973333"></rect>
                <path d="M336.475385,0.989333333 L277.045385,0.989333333 L277.045385,57.9866667 L336.475385,57.9866667 C343.383846,57.9866667 349,52.424 349,45.56 L349,13.416 C349,6.55733333 343.383846,0.989333333 336.475385,0.989333333 Z" id="Shape"></path>
            </g>
        </g>
    </g>
</svg>